# xmcd CD database file
#
# Track frame offsets:
#	150
#	11757
#	25360
#	38272
#	52162
#	66242
#	80117
#	94695
#	109950
#	132993
#	146941
#	160439
#	173422
#	187918
#	201124
#	215294
#	228978
#	242681
#	257119
#	271275
#
# Disc length: 3810 seconds
#
# Revision: 0
# Processed by: cddbd v1.5.1PL0 Copyright (c) Steve Scherf et al.
# Submitted via: CDex 1.50beta9
#
DISCID=1e0ee014
DTITLE=Coleman Hawkins - Dear Old Southland, CD2
DYEAR=1900
DGENRE=Jazz
TTITLE0=Meet Doctor Foo
TTITLE1=Body And Soul
TTITLE2=Dedication
TTITLE3=Serenade To A Sleeping Beauty
TTITLE4=My Ideal
TTITLE5=Lover Come Back To Me
TTITLE6=Crazy Rhythm
TTITLE7=Get Happy
TTITLE8=The Man I love
TTITLE9=Bean At The Met
TTITLE10=Rainbow Mist
TTITLE11=Recollections
TTITLE12=Indian Summer
TTITLE13=Phantomesque
TTITLE14=April in Paris
TTITLE15=How Strange
TTITLE16=Half Step Down Please
TTITLE17=Angel Face
TTITLE18=Jumpin For Jane
TTITLE19=Picasso
EXTD=
EXTT0=
EXTT1=
EXTT2=
EXTT3=
EXTT4=
EXTT5=
EXTT6=
EXTT7=
EXTT8=
EXTT9=
EXTT10=
EXTT11=
EXTT12=
EXTT13=
EXTT14=
EXTT15=
EXTT16=
EXTT17=
EXTT18=
EXTT19=
PLAYORDER=
